<?xml version="1.0" encoding="utf-8"?>
<!-- Generator: Adobe Illustrator 22.0.0, SVG Export Plug-In . SVG Version: 6.00 Build 0)  -->
<svg version="1.1" id="Шар_1" xmlns="http://www.w3.org/2000/svg" xmlns:xlink="http://www.w3.org/1999/xlink" x="0px" y="0px"
	 width="1171.104px" height="957.604px" viewBox="0 0 1171.104 957.604" style="enable-background:new 0 0 1171.104 957.604;"
	 xml:space="preserve">
<style type="text/css">
	.st0{fill:#0C7CFF;}
	.st1{filter:url(#Path_1427);}
	.st2{fill:#FFFFFF;}
	.st3{fill:none;stroke:#E5E5E5;stroke-width:3.509;}
	.st4{fill:#E5E5E5;}
	.st5{fill:#0094FF;}
	.st6{fill:none;stroke:#E5E5E5;stroke-width:3.502;}
	.st7{fill:#FFFFFF;stroke:#E5E5E5;stroke-width:3.502;}
	.st8{fill:#0094FF;stroke:#0094FF;stroke-width:3.502;}
	.st9{fill:#64BDFD;}
	.st10{fill:none;stroke:#0094FF;stroke-width:3.502;}
	.st11{fill:#64BDFD;stroke:#0094FF;stroke-width:3.502;}
	.st12{fill:#1C5BFF;}
	.st13{fill:#D9D9D9;}
	.st14{fill:#FFC100;}
	.st15{fill:#FFFFFF;stroke:#0094FF;stroke-width:3.502;}
	.st16{fill:#EBF2F3;stroke:#E5E5E5;stroke-width:3.502;}
	.st17{fill:#16C8BE;}
	.st18{opacity:0.2;fill:#FFFFFF;enable-background:new    ;}
	.st19{opacity:0.1;fill:#73DEDE;enable-background:new    ;}
	.st20{fill:#FF8577;}
	.st21{fill:#FFC100;stroke:#FFC100;stroke-width:3.502;}
	.st22{fill:none;stroke:#EBF2F3;stroke-width:3.502;}
	.st23{fill:#99D4FF;}
	.st24{fill:#CCEAFF;stroke:#0094FF;stroke-width:3.502;}
	.st25{fill:#66BFFF;}
	.st26{fill:#346DFF;}
	.st27{fill:#5D8AFF;}
	.st28{fill:#99D4FF;stroke:#0094FF;stroke-width:3.502;}
	.st29{fill:#16C8C8;}
	.st30{fill:#FFB23F;}
	.st31{fill:#E6F5FF;}
	.st32{clip-path:url(#SVGID_2_);}
	.st33{fill:#EAEBEC;}
	.st34{opacity:0.4;fill:#EAEBEC;enable-background:new    ;}
	.st35{opacity:0.8;fill:#FFFFFF;enable-background:new    ;}
</style>
<filter  filterUnits="userSpaceOnUse" height="819.744" id="Path_1427" width="1171.104" x="0" y="137.86">
	<feOffset  dx="-85" dy="85" input="SourceAlpha"></feOffset>
	<feGaussianBlur  result="blur" stdDeviation="49.5"></feGaussianBlur>
	<feFlood  flood-opacity="0.161"></feFlood>
	<feComposite  in2="blur" operator="in"></feComposite>
	<feComposite  in="SourceGraphic" operator="over"></feComposite>
</filter>
<g id="Group_9104" transform="translate(-511.501 -216.458)">
	<g id="Group_3327" transform="translate(558.098 212.162)">
		<g id="Group_109">
			<path id="Path_1319" class="st0" d="M808.792,715.128c-30.653,17.7-80.351,17.7-111,0l-487.9-288.29
				c-30.653-17.7-30.653-46.387,0-64.083l229.23-143.827c30.653-17.7,80.351-17.7,111,0l487.898,288.291
				c30.65,17.7,30.65,46.386,0,64.082L808.792,715.128z"/>
		</g>
		<g transform="matrix(1, 0, 0, 1, -46.6, 4.3)" class="st1">
			<path id="Path_1427-2_1_" class="st0" d="M855.392,710.828c-30.653,17.7-80.351,17.7-111,0l-487.9-288.29
				c-30.653-17.7-30.653-46.387,0-64.083l229.23-143.827c30.653-17.7,80.351-17.7,111,0l487.898,288.291
				c30.65,17.7,30.65,46.386,0,64.082L855.392,710.828z"/>
		</g>
		<rect id="Rectangle_456" x="186.902" y="381" class="st0" width="17" height="15"/>
		<path id="Path_1320" class="st2" d="M808.792,700.749c-30.653,17.7-80.351,17.7-111,0l-487.9-287.568
			c-30.653-17.7-30.653-46.387,0-64.082l229.231-143.827c30.653-17.7,80.351-17.7,111,0L1038.02,492.84
			c30.65,17.7,30.65,46.386,0,64.082L808.792,700.749z"/>
		<path id="Path_1321" class="st2" d="M359.357,266.89c2.83,4.244,9.334,6.316,12.232,6.821h2.8l59.244-34.232
			c1.719-1.621,5.276-5.044,5.747-5.768c0.59-0.9-0.3-1.9-1.474-3.516c-1.519-1.944-3.492-3.484-5.747-4.484
			c-2.8-1.389-5.748-7.454-8.106-9.664c-1.886-1.769-12.084-3.193-16.947-3.685l-52.76,32.275
			C351.546,254.069,355.82,261.585,359.357,266.89z"/>
		<path id="Path_1322" class="st3" d="M353.491,250.513c0-8.112,5.7-11.4,12.721-7.344s12.721,13.922,12.721,22.035
			s-5.7,11.4-12.72,7.344S353.491,258.626,353.491,250.513z"/>
		<path id="Path_1323" class="st3" d="M435.51,238.615c2.23-1.359,3.6-4.179,3.6-8.163c0-8.113-5.7-17.978-12.721-22.035
			c-3.451-1.992-6.58-2.213-8.872-0.961"/>
		<path id="Path_1324" class="st3" d="M374.727,273.71l60.784-35.094 M356.741,242.558l61.544-35.533"/>
		<path id="Path_1325" class="st4" d="M438.044,232.961l1.437-6.768l-7.018-12.157l-7.426-5.844l-6.753-1.167l-33.11,18.1
			c6.622,0.654,12.557,4.37,16.036,10.043L438.044,232.961z M407.771,255.629l0.257-0.139l-0.192,0.117L407.771,255.629z"/>
		<path id="Path_1326" class="st4" d="M439.514,233.266l-2.162,3.274l-0.076,0.046l0.686-3.234L439.514,233.266z M401.334,235.366
			l-34.477,1.9l-4.359,2.979l9.941,8.444l3.626,8.037l2.429,7.716l-0.728,7.512l26.025-15.468
			c2.331-7.057,1.432-14.783-2.457-21.117V235.366z"/>
		<path id="Path_1327" class="st4" d="M364.055,258.406l-0.43,1.6c-0.168,0.628,0.024,1.297,0.5,1.74l6.989,6.494
			c0.554,0.563,1.442,0.619,2.062,0.13c1.633-1.417,1.767-3.12,0.622-6.544c-0.139-0.405-0.424-0.743-0.8-0.948l-6.4-3.555
			c-0.848-0.469-1.915-0.161-2.384,0.687C364.145,258.135,364.092,258.268,364.055,258.406z"/>
		<path id="Path_1328" class="st3" d="M489.883,238.754c7.025,4.056,7.025,10.632,0,14.688c-7.025,4.056-18.418,4.056-25.444,0
			s-7.026-10.632,0-14.688S482.857,234.7,489.883,238.754z"/>
		<path id="Path_1329" class="st2" d="M459.176,314.674l0.877-42.113l25.443-7.9l4.387,23.688l-14.038,34.221l-14.037-1.755
			L459.176,314.674z"/>
		<path id="Path_1330" class="st3" d="M459.178,315.734c0.061,2.611,1.817,5.211,5.268,7.2c7.025,4.057,18.417,4.057,25.443,0
			c3.45-1.991,5.206-4.591,5.267-7.2"/>
		<path id="Path_1331" class="st3" d="M459.176,245.546v70.188 M495.147,245.546v71.066"/>
		<path id="Path_1332" class="st4" d="M462.807,320.756l5.143,4.629h14.037l8.774-3.509l4.387-5.264l0.877-37.726
			c-3.877,5.408-10.064,8.689-16.716,8.865L462.807,320.756z M458.312,283.2l-0.007,0.294l-0.006-0.226L458.312,283.2z"/>
		<path id="Path_1333" class="st4" d="M460.765,319.789l1.043,2.087l0.168-0.333L460.765,319.789z M479.076,287.76l15.6-30.808
			l-0.4-5.264l-12.283,4.386l-8.774-0.877l-7.9-1.755l-6.141-4.386l0.383,30.272C464.507,284.876,471.647,287.961,479.076,287.76
			L479.076,287.76z"/>
		<path id="Path_1334" class="st4" d="M477.765,243.957l-1.173-1.173c-0.46-0.46-1.136-0.628-1.757-0.436l-9.119,2.8
			c-0.764,0.199-1.256,0.94-1.143,1.721c0.41,2.123,1.819,3.091,5.356,3.811c0.419,0.083,0.854,0.006,1.219-0.215l6.279-3.767
			c0.83-0.5,1.097-1.579,0.597-2.409C477.951,244.168,477.864,244.057,477.765,243.957z"/>
		<path id="Path_1335" class="st4" d="M493.077,5.838l-10.505,7l159.32,90.165l4.377,4.377v289.755l12.255-7V103.006L655.9,99.5
			L493.077,5.838z"/>
		<path id="Path_1336" class="st5" d="M625.811,432.662v-8.578l16.85-2.25l34.126-3.59l55.052,12.956l15.025,22.143l-1.46,12.835
			l-6.935,14.113l-12.169,9.186l-17.823-9.854l-0.3-7.422l12.652-10.645l1.582-8.76c-1.44-1.46-4.38-4.4-4.623-4.5
			s-5.657-4.623-8.334-6.874l-16.059-5.657l-20.926-1.1l-18.31,2.676l-10.767,4.988L625.811,432.662z"/>
		<path id="Path_1337" class="st4" d="M489.738,352.61v-8.578l16.85-2.251l34.127-3.589l55.052,12.957l15.025,22.143l-1.46,12.835
			L602.4,400.24l-12.166,9.185l-17.823-9.854l-0.3-7.422l12.645-10.649l1.582-8.76c-1.44-1.46-4.38-4.4-4.623-4.5
			s-5.658-4.623-8.334-6.874l-16.06-5.658l-20.921-1.091l-18.311,2.676l-10.767,4.988L489.738,352.61z"/>
		<path id="Path_1338" class="st6" d="M583.337,386.114c1.191-1.145-0.318,6.82,0.572,5.58c4.768-6.098,4.768-14.66,0-20.758
			c-2.736-3.619-6.207-6.618-10.185-8.8c-4.774-2.678-9.906-4.658-15.242-5.879c-11.828-2.753-24.13-2.753-35.958,0
			c-5.336,1.221-10.468,3.201-15.242,5.879l-17.672-10.207l-0.032-0.018l0.032-8.321 M571.989,391.133v8.3l17.651,10.25
			c5.882-3.228,11.014-7.664,15.06-13.016c3.492-4.867,5.5-10.084,5.5-15.352c0-19.179-2.011-10.485-5.5-15.352
			c-4.047-5.352-9.18-9.788-15.063-13.015c-7.061-3.963-14.653-6.892-22.545-8.7c-17.495-4.072-35.691-4.072-53.186,0
			c-8.481,2.028-13.988,6.043-7.808-3.939"/>
		<path id="Path_1339" class="st7" d="M491.365,343.585c7.06-3.963,14.653-6.893,22.545-8.7c17.495-4.072,35.691-4.072,53.186,0
			c7.892,1.807,15.484,4.737,22.544,8.7c5.882,3.227,11.014,7.663,15.06,13.015c7.051,9.019,7.051,21.681,0,30.7
			c-4.047,5.352-9.181,9.788-15.064,13.015l-15.916-9.189c3.978-2.182,7.449-5.181,10.185-8.8c4.768-6.098,4.768-14.661,0-20.759
			c-2.737-3.618-6.208-6.617-10.185-8.8c-4.773-2.679-9.906-4.659-15.242-5.88c-11.828-2.752-24.13-2.752-35.958,0
			c-5.336,1.221-10.469,3.201-15.243,5.88L491.365,343.585z"/>
		<path id="Path_1340" class="st8" d="M566.164,255.995l22.846,13.191v77.542l-11.822,7.265l-11.023-20.456L566.164,255.995z"/>
		<path id="Path_1341" class="st9" d="M560.254,347.2l-0.754-36.219l18.864,10.819l-1.006,32.53L560.254,347.2z"/>
		<path id="Path_1342" class="st10" d="M577.587,355.377v-77.009l-17.579-10v78.749"/>
		<path id="Path_1343" class="st6" d="M513.91,334.888c-7.892,1.808-15.484,4.737-22.545,8.7l15.916,9.189
			c4.774-2.679,9.907-4.659,15.243-5.88c11.828-2.752,24.13-2.752,35.958,0c5.336,1.221,10.469,3.201,15.242,5.88
			c3.978,2.182,7.449,5.181,10.185,8.8c4.768,6.098,4.768,14.661,0,20.759c-2.736,3.619-6.207,6.618-10.185,8.8l15.916,9.189
			c5.883-3.231,11.015-7.67,15.06-13.025c7.051-9.019,7.051-21.681,0-30.7c-4.047-5.352-9.181-9.788-15.064-13.015"/>
		<path id="Path_1344" class="st4" d="M507.266,362.091v-8.983l12.362-5.619l21.63-2.367l22.457,2.368v9.029l-18.527-1.852
			l-19.259,1.158L507.266,362.091z"/>
		<path id="Path_1345" class="st10" d="M719.409,466.167c1.191-1.145-0.317,6.82,0.572,5.58c4.768-6.098,4.768-14.66,0-20.758
			c-2.736-3.619-6.207-6.618-10.184-8.8c-4.774-2.678-9.907-4.658-15.243-5.879c-11.828-2.753-24.13-2.753-35.958,0
			c-5.335,1.221-10.468,3.201-15.242,5.879l-17.672-10.207l-0.032-0.018l0.032-8.321 M708.061,471.186v8.3l17.652,10.25
			c5.883-3.227,11.016-7.663,15.063-13.015c3.493-4.867,5.5-10.084,5.5-15.352c0-19.179-2.01-10.485-5.5-15.352
			c-4.046-5.353-9.18-9.789-15.063-13.017c-7.061-3.963-14.653-6.892-22.545-8.7c-17.495-4.072-35.691-4.072-53.186,0
			c-8.48,2.027-13.988,6.043-7.807-3.939"/>
		<path id="Path_1346" class="st11" d="M627.438,423.637c7.06-3.963,14.652-6.893,22.544-8.7c17.495-4.071,35.691-4.071,53.186,0
			c7.892,1.807,15.485,4.737,22.545,8.7c5.883,3.227,11.016,7.663,15.063,13.015c7.051,9.019,7.051,21.681,0,30.7
			c-4.047,5.352-9.18,9.788-15.063,13.015l-15.913-9.185c3.978-2.182,7.449-5.181,10.185-8.8c4.768-6.098,4.768-14.661,0-20.759
			c-2.736-3.619-6.207-6.618-10.185-8.8c-4.774-2.678-9.906-4.658-15.242-5.879c-11.828-2.753-24.13-2.753-35.958,0
			c-5.336,1.221-10.468,3.201-15.242,5.879L627.438,423.637z"/>
		<path id="Path_1347" class="st6" d="M644.011,399.1l12.245-7.174c1.073-0.628,1.731-1.778,1.731-3.021V102.958
			c0-1.253-0.669-2.41-1.755-3.034L494.1,6.587c-1.171-0.675-2.626-0.615-3.738,0.154l-9.464,6.54"/>
		<path id="Path_1348" class="st7" d="M640.595,399.162c1.673,0.968,3.814,0.395,4.782-1.278c0.308-0.533,0.471-1.139,0.47-1.755
			l-0.01-288.035c0-1.251-0.667-2.408-1.751-3.033L484.741,13.055c-1.673-0.968-3.814-0.395-4.782,1.278
			c-0.308,0.533-0.47,1.138-0.47,1.754l0.01,288.036c0,1.251,0.667,2.407,1.751,3.032L640.595,399.162z"/>
		<path id="Path_1349" class="st7" d="M632.247,379.775c1.673,0.968,3.814,0.397,4.782-1.276c0.309-0.534,0.471-1.14,0.471-1.757
			l-0.01-262.767c0-0.625-0.334-1.203-0.875-1.516L490.466,28.073c-0.838-0.483-1.908-0.196-2.392,0.642
			c-0.153,0.266-0.234,0.567-0.234,0.874l0.01,264.789c0,1.251,0.667,2.407,1.751,3.032L632.247,379.775z"/>
		<path id="Path_1350" class="st12" d="M618.545,132.93l-0.008-10.954L503.339,55.46l0.008,10.954L618.545,132.93z"/>
		<path id="Path_1351" class="st13" d="M560.94,106.225l-57.6-33.257l0.007,10.955l57.6,33.258L560.94,106.225z"/>
		<path id="Path_1352" class="st5" d="M618.545,167.945l-0.008-10.954l-115.2-66.515l0.008,10.954L618.545,167.945z"/>
		<path id="Path_1353" class="st13" d="M618.545,272.991l-0.008-10.954l-115.2-66.515l0.008,10.954L618.545,272.991z"/>
		<path id="Path_1354" class="st13" d="M560.94,141.241l-57.6-33.258l0.007,10.955l57.6,33.257L560.94,141.241z"/>
		<path id="Path_1355" class="st14" d="M618.537,192.006l0.008,10.955l-57.6-33.258l-0.008-10.955L618.537,192.006z"/>
		<path id="Path_1356" class="st14" d="M503.347,136.445l-0.008-10.954l28.8,16.628l0.007,10.955L503.347,136.445z"/>
		<path id="Path_1357" class="st12" d="M560.94,246.287l-57.6-33.258l0.007,10.955l57.6,33.257L560.94,246.287z"/>
		<path id="Path_1358" class="st13" d="M618.537,297.053l0.008,10.954l-57.6-33.257l-0.008-10.955L618.537,297.053z"/>
		<path id="Path_1359" class="st13" d="M503.347,241.492l-0.008-10.954l28.8,16.628l0.007,10.955L503.347,241.492z"/>
		<path id="Path_1360" class="st13" d="M560.94,193.764l-57.6-33.258l0.007,10.954l57.6,33.258L560.94,193.764z"/>
		<path id="Path_1361" class="st14" d="M618.537,244.529l0.008,10.955l-57.6-33.258l-0.008-10.954L618.537,244.529z"/>
		<path id="Path_1362" class="st14" d="M503.347,188.968l-0.008-10.954l28.8,16.629l0.007,10.954L503.347,188.968z"/>
		<path id="Path_1363" class="st13" d="M560.94,176.256L503.341,143l0.007,10.955l57.6,33.258L560.94,176.256z"/>
		<path id="Path_1364" class="st8" d="M702.238,336.047l22.846,13.191v77.542l-11.823,7.265l-11.023-20.456V336.047z"/>
		<path id="Path_1365" class="st9" d="M696.329,427.255l-0.755-36.219l18.864,10.815l-1.006,32.53L696.329,427.255z"/>
		<path id="Path_1366" class="st10" d="M713.662,435.429V358.42l-17.58-10v78.75"/>
		<path id="Path_1367" class="st8" d="M589.745,126.6c1.102-0.69,2.495-0.714,3.621-0.063l248.8,144.053
			c1.084,0.627,1.751,1.785,1.751,3.037V464.6c0,1.255-0.671,2.415-1.759,3.041l-5.867,3.377c-1.128,0.649-2.522,0.621-3.622-0.073
			L590.633,318.366l-9.175-184.456c-0.063-1.27,0.565-2.474,1.642-3.149L589.745,126.6z"/>
		<path id="Path_1368" class="st8" d="M581.285,140.053c0-1.939,1.572-3.51,3.511-3.509c0.616,0,1.221,0.162,1.754,0.47
			l244.336,141.08c1.074,0.62,1.741,1.76,1.754,3l1.978,184.484c0.021,1.938-1.533,3.526-3.471,3.547
			c-0.627,0.007-1.244-0.154-1.787-0.467L583.053,327.073c-1.089-0.626-1.761-1.787-1.761-3.043L581.285,140.053z"/>
		<path id="Path_1369" class="st15" d="M581.14,140.029c-0.004-1.938,1.564-3.512,3.502-3.516c0.618-0.001,1.226,0.161,1.761,0.47
			L830.3,277.69c1.086,0.626,1.756,1.785,1.756,3.039v165.685c0,1.938-1.571,3.509-3.509,3.509c-0.604,0-1.197-0.156-1.723-0.452
			l-243.579-137.18c-1.102-0.621-1.785-1.786-1.788-3.051L581.14,140.029z"/>
		<path id="Path_1370" class="st10" d="M649.982,414.94c-7.892,1.807-15.484,4.737-22.544,8.7l15.916,9.189
			c4.773-2.679,9.906-4.659,15.242-5.88c11.828-2.752,24.13-2.752,35.958,0c5.336,1.221,10.469,3.201,15.242,5.88
			c3.978,2.182,7.449,5.181,10.185,8.8c4.768,6.098,4.768,14.661,0,20.759c-2.736,3.619-6.207,6.618-10.185,8.8l15.917,9.189
			c5.883-3.228,11.016-7.663,15.063-13.015c7.051-9.019,7.051-21.681,0-30.7c-4.047-5.352-9.18-9.787-15.063-13.015"/>
		<path id="Path_1371" class="st4" d="M558.921,429.825c0.954-0.488,2.085-0.49,3.041-0.005l187.33,108.145
			c1.675,0.967,1.675,2.535,0,3.5l-83.347,48.116c-0.953,0.484-2.08,0.484-3.033,0l-188.2-108.833
			c-0.484-0.159-0.747-0.68-0.589-1.164c0.09-0.274,0.303-0.491,0.577-0.585L558.921,429.825z"/>
		<path id="Path_1372" class="st4" d="M750.782,526.061l-0.226,13.723l-12.986-6.04L750.782,526.061z"/>
		<path id="Path_1373" class="st4" d="M474.076,474.434v5.446l4.419-2.318L474.076,474.434z"/>
		<path id="Path_1374" class="st7" d="M559.054,417.782c0.97-0.553,2.154-0.58,3.148-0.072l185.8,107.264
			c0.791,0.457,0.841,1.188,0.115,1.679l-82.31,55.717c-0.97,0.554-2.154,0.581-3.148,0.072l-185.8-107.264
			c-0.79-0.456-0.841-1.187-0.115-1.678L559.054,417.782z"/>
		<path id="Path_1375" class="st16" d="M558.737,433.411c0.972-0.569,2.168-0.603,3.171-0.089L722.957,526.3
			c0.781,0.45,0.841,1.17,0.139,1.662l-56.06,39.31c-0.973,0.569-2.168,0.602-3.171,0.088l-161.049-92.977
			c-0.781-0.451-0.841-1.17-0.139-1.662L558.737,433.411z"/>
		<path id="Path_1376" class="st16" d="M571.03,440.484c0.971-0.556,2.157-0.584,3.153-0.075L711.535,519.7
			c0.789,0.455,0.841,1.184,0.121,1.675l-56.913,38.817c-0.971,0.557-2.157,0.586-3.153,0.076l-137.352-79.291
			c-0.789-0.456-0.842-1.184-0.121-1.676L571.03,440.484z"/>
		<path id="Path_1377" class="st16" d="M584.49,448.229c0.968-0.543,2.143-0.566,3.132-0.062l111.408,64.316
			c0.8,0.46,0.84,1.2,0.1,1.689l-57.848,38.278c-0.968,0.543-2.144,0.566-3.132,0.061L526.743,488.2c-0.8-0.46-0.841-1.2-0.1-1.689
			L584.49,448.229z"/>
		<path id="Path_1378" class="st16" d="M598.394,456.229c0.965-0.529,2.129-0.547,3.11-0.047l84.608,48.844
			c0.807,0.465,0.841,1.214,0.078,1.7l-58.812,37.724c-0.965,0.529-2.129,0.547-3.11,0.047l-84.609-48.844
			c-0.806-0.465-0.84-1.214-0.077-1.7L598.394,456.229z"/>
		<path id="Path_1379" class="st16" d="M612.277,464.216c0.962-0.515,2.115-0.528,3.088-0.033l57.849,33.4
			c0.816,0.471,0.84,1.229,0.056,1.717l-59.776,37.165c-0.962,0.515-2.115,0.528-3.088,0.033l-57.849-33.4
			c-0.815-0.471-0.84-1.23-0.055-1.718L612.277,464.216z"/>
		<path id="Path_1380" class="st16" d="M625.7,471.94c0.958-0.503,2.1-0.51,3.065-0.02l31.978,18.461
			c0.481,0.161,0.741,0.682,0.579,1.163c-0.088,0.262-0.288,0.47-0.546,0.568l-60.707,36.627c-0.958,0.503-2.101,0.51-3.065,0.019
			L565.028,510.3c-0.481-0.161-0.741-0.682-0.579-1.163c0.088-0.262,0.288-0.47,0.546-0.568L625.7,471.94z"/>
		<path id="Path_1381" class="st16" d="M637.926,478.973c0.955-0.491,2.088-0.493,3.046-0.007l8.416,4.859
			c0.483,0.163,0.742,0.686,0.579,1.168c-0.09,0.268-0.299,0.48-0.566,0.575l-61.555,36.138c-0.955,0.49-2.088,0.493-3.045,0.007
			l-8.417-4.859c-0.483-0.163-0.742-0.686-0.579-1.168c0.09-0.268,0.299-0.48,0.566-0.575L637.926,478.973z"/>
		<path id="Path_1382" class="st6" d="M546.646,441.886c0.973-0.569,2.168-0.602,3.171-0.088l161.049,92.973
			c0.781,0.451,0.841,1.171,0.139,1.663l1.655,0.787l-1.655-0.787l-31.9,22.351c-0.973,0.569-2.168,0.602-3.171,0.088L514.888,465.9
			c-0.781-0.45-0.841-1.17-0.139-1.662L546.646,441.886z"/>
		<path id="Path_1383" class="st6" d="M534.9,450.13c0.973-0.57,2.169-0.604,3.173-0.09l161.047,92.973
			c0.78,0.451,0.841,1.169,0.141,1.661l-8.128,5.713c-0.973,0.57-2.17,0.604-3.174,0.089L526.911,457.5
			c-0.78-0.45-0.841-1.169-0.14-1.661L534.9,450.13z"/>
		<path id="Path_1384" class="st17" d="M771.822,527.075c1.316-0.668,2.871-0.668,4.187,0l20.174,11.646
			c0.667,0.226,1.025,0.951,0.799,1.618c-0.127,0.376-0.423,0.672-0.799,0.799l-20.174,11.646c-1.316,0.668-2.871,0.668-4.187,0
			l-20.174-11.646c-0.667-0.226-1.025-0.951-0.799-1.618c0.127-0.376,0.423-0.672,0.799-0.799L771.822,527.075z"/>
		<path id="Path_1385" class="st5" d="M725.783,489.122v-8.983l10.836-8.534l7.523-9.432l1.8,3.144l-9.712,18.134L725.783,489.122z"
			/>
		<path id="Path_1386" class="st5" d="M643.338,442.144v-8.983l12.363-5.619l21.629-2.368l22.457,2.368v9.03l-18.527-1.853
			L662,435.877L643.338,442.144z"/>
		<path id="Path_1387" class="st18" d="M846.839,215.784c0.106-1.973,1.146-3.777,2.8-4.858l45.655-26.36
			c1.549-0.895,2.8-0.17,2.8,1.619v52.718c-0.106,1.973-1.146,3.777-2.8,4.858l-45.654,26.361c-1.549,0.894-2.805,0.169-2.805-1.619
			L846.839,215.784z"/>
		<path id="Path_1388" class="st12" d="M349.626,88.337c0.099-1.835,1.068-3.512,2.607-4.515l42.427-24.5
			c1.439-0.831,2.606-0.158,2.606,1.5v48.992c-0.1,1.834-1.068,3.511-2.606,4.515l-42.427,24.5c-1.44,0.831-2.607,0.157-2.607-1.5
			V88.337z"/>
		<path id="Path_1389" class="st17" d="M996.814,307.869c-0.076-1.382-0.806-2.645-1.966-3.4l-31.993-18.473
			c-1.086-0.627-1.966-0.119-1.966,1.135v36.943c0.076,1.382,0.806,2.644,1.965,3.4l31.994,18.473
			c1.085,0.627,1.965,0.119,1.965-1.134L996.814,307.869z"/>
		<path id="Path_1390" class="st12" d="M843.993,469.047c0.054-0.983,0.574-1.882,1.4-2.418l22.727-13.123
			c0.771-0.445,1.4-0.084,1.4,0.806v26.243c-0.054,0.984-0.574,1.882-1.4,2.419L845.388,496.1c-0.771,0.446-1.4,0.085-1.4-0.806
			L843.993,469.047z"/>
		<rect id="Rectangle_457" x="701.801" y="429.689" class="st5" width="2.515" height="9.383"/>
		<path id="Path_1391" class="st18" d="M751.235,149.041c0.685-0.347,1.493-0.347,2.178,0l17.731,10.236
			c0.347,0.117,0.534,0.494,0.416,0.842c-0.066,0.196-0.22,0.35-0.416,0.416l-17.731,10.236c-0.685,0.347-1.493,0.347-2.178,0
			L733.5,160.535c-0.347-0.117-0.534-0.494-0.416-0.842c0.066-0.196,0.22-0.35,0.416-0.416L751.235,149.041z"/>
		<path id="Path_1392" class="st19" d="M680.531,47.354c0.644,0.419,1.049,1.12,1.09,1.887v20.473c0,0.695-0.487,0.976-1.089,0.629
			L662.8,60.105c-0.643-0.42-1.047-1.12-1.089-1.887V37.745c0-0.695,0.488-0.976,1.089-0.629L680.531,47.354z"/>
		<path id="Path_1393" class="st20" d="M917.81,173.525c-0.041-0.767-0.446-1.468-1.089-1.887l-17.73-10.238
			c-0.6-0.347-1.089-0.066-1.089,0.629V182.5c0.042,0.767,0.446,1.467,1.089,1.887l17.73,10.237c0.6,0.347,1.089,0.066,1.089-0.629
			V173.525z"/>
		<path id="Path_1394" class="st20" d="M984.73,446.557c-0.041-0.767-0.446-1.468-1.089-1.887l-17.73-10.237
			c-0.6-0.347-1.089-0.066-1.089,0.629v20.473c0.041,0.767,0.446,1.468,1.089,1.887l17.73,10.237c0.6,0.347,1.089,0.066,1.089-0.629
			V446.557z"/>
		<path id="Path_1395" class="st14" d="M993.847,442.444c-0.079-1.469-0.854-2.812-2.087-3.615l-33.973-19.616
			c-1.153-0.666-2.087-0.126-2.087,1.2v39.229c0.08,1.469,0.855,2.812,2.088,3.616l33.973,19.616c1.152,0.665,2.087,0.126,2.087-1.2
			L993.847,442.444z"/>
		<path id="Path_1396" class="st20" d="M889.351,444.738c-0.041-0.767-0.446-1.468-1.089-1.887l-17.73-10.237
			c-0.6-0.347-1.089-0.066-1.089,0.629v20.473c0.042,0.767,0.446,1.467,1.089,1.887l17.73,10.237c0.6,0.347,1.089,0.066,1.089-0.629
			V444.738z"/>
		<path id="Path_1397" class="st4" d="M507.76,363.137c0.685-0.347,1.494-0.347,2.179,0l17.73,10.236
			c0.347,0.117,0.534,0.494,0.416,0.842c-0.066,0.196-0.22,0.35-0.416,0.416l-17.73,10.235c-0.684,0.349-1.495,0.349-2.179,0
			l-17.731-10.235c-0.347-0.117-0.534-0.494-0.416-0.842c0.066-0.196,0.22-0.35,0.416-0.416L507.76,363.137z"/>
		<path id="Path_1398" class="st21" d="M494.371,402.431c0.532-0.233,1.136-0.233,1.668,0l0.876-1.517l-0.876,1.517l26.914,15.537
			l-26.914,15.537c-0.532,0.232-1.136,0.232-1.668,0l-26.914-15.537L494.371,402.431z"/>
		<path id="Path_1399" class="st10" d="M799.914,539.929l16.184-9.342c0.014-0.005,0.028-0.01,0.043-0.013
			c0.119-0.025,0.243-0.025,0.362,0c0.015,0.003,0.029,0.008,0.043,0.013l16.183,9.342l-16.183,9.343l-0.043,0.013
			c-0.119,0.025-0.243,0.025-0.362,0l-0.043-0.013L799.914,539.929z"/>
		<path id="Path_1400" class="st4" d="M709.441,608.714l-1.115-14.5l3.346,6.237l9.48,2.6l12.894,0.866l9.041-3.943l10.781-7.993
			l14.5-5.39l16.172-4.462h5.949L789,586.594l-9.295,7.621l-16.729,8.365l-14.314,10.409l-7.621,4.462l-8.907,1.021l-14.143-2.137
			L709.441,608.714z"/>
		<path id="Path_1401" class="st6" d="M791.136,581.779l-1,2.405c-0.73,2.574-2.989,4.917-6.326,6.658
			c-14.076,7.167-27.485,15.575-40.068,25.123c-3.247,2.416-11.095,2.43-13.427,2.138c-8.148-1.016-12.7-2.887-16.505-5.278
			c-4-2.511-5.71-5.889-5.782-9.314V591.29"/>
		<path id="Path_1402" class="st22" d="M772.294,586.293l-0.557,1.018c-0.602,1.1-1.577,1.948-2.749,2.391l-8.129,3.076
			c-0.959,0.363-2.004,0.437-3.005,0.213l-3.168-0.708"/>
		<path id="Path_1403" class="st7" d="M761.876,566.73c1.561-0.143,3.133-0.094,4.682,0.143c12.989,2.059,17.7,5.35,23.44,14.477
			c-22.528,5.867-29.277,4.755-47.633,18.83c-1.929,1.479-11.356,4.636-14.555,4.5c-19.922-0.844-21.3-7.08-19.511-14.7
			c0.871-3.705,4.6-6.948,8.873-9.758C733.409,569.537,738.2,568.782,761.876,566.73z"/>
		<path id="Path_1404" class="st6" d="M768.2,586.452c-3.522-11.36-20.994-15.479-33.949-15.479"/>
		<path id="Path_1405" class="st6" d="M759.049,576.067c6.814-3.31,11.918-3.645,21-5.094"/>
		<path id="Rectangle_458" class="st4" d="M747.378,578.259l0.786,0.786c0.687,0.687,0.687,1.8,0,2.486l-1.797,1.797
			c-0.687,0.687-1.8,0.687-2.486,0l-0.786-0.786c-0.687-0.687-0.687-1.8,0-2.486l1.797-1.797
			C745.578,577.573,746.692,577.573,747.378,578.259z"/>
		<path id="Path_1406" class="st23" d="M409.012,428.861c12.568,7.256,32.944,7.256,45.512,0c6.282-3.626,9.424-8.379,9.426-13.132
			v-49.572l-64.364-0.07v49.637C399.586,420.479,402.728,425.233,409.012,428.861z"/>
		<path id="Path_1407" class="st10" d="M399.623,414.831c-0.418,5.048,2.711,10.175,9.389,14.03c12.568,7.256,32.944,7.256,45.512,0
			c6.282-3.626,9.424-8.379,9.426-13.132 M399.586,415.838v-49.751l64.364,0.07v49.917"/>
		<path id="Path_1408" class="st24" d="M454.858,352.459c6.3,3.634,9.056,8.151,9.056,12.307s-2.753,8.673-9.056,12.307
			s-14.651,5.492-23.1,5.492s-16.811-1.864-23.1-5.492s-9.055-8.151-9.055-12.307s2.752-8.673,9.055-12.307s14.651-5.492,23.1-5.492
			S448.565,348.831,454.858,352.459z"/>
		<path id="Path_1409" class="st15" d="M448.679,357.033c4.671,2.425,6.466,5.314,6.466,7.733s-1.795,5.308-6.466,7.732
			c-4.627,2.4-10.808,3.65-17.084,3.65s-12.456-1.248-17.083-3.65c-4.671-2.424-6.466-5.313-6.466-7.732s1.8-5.308,6.466-7.733
			c4.627-2.4,10.807-3.649,17.083-3.649S444.052,354.631,448.679,357.033z"/>
		<path id="Path_1410" class="st25" d="M456.84,367.692l-49.25,0.8l-0.627-2.006v-5.724c2.312-3.342,8.837-9.724,25.549-9.69
			s22.587,7.672,24.328,11.335V367.692z"/>
		<path id="Path_1411" class="st26" d="M406.115,367.644c1.339-2.145,2.119-2.483,5.4-4.187c11.089-5.756,29.067-5.756,40.156,0
			c3.282,1.7,4.142,1.574,5.481,3.719c-1.751,2.534-4.142,4.558-6.931,5.865c-11.089,5.756-26.086,6.224-37.175,0.468
			C410.258,372.201,407.866,370.178,406.115,367.644z"/>
		<path id="Path_1412" class="st27" d="M437.275,359.436c-3.097-0.323-6.215-0.382-9.322-0.175L414.6,372.455l5.3,3.508
			L437.275,359.436z M441.613,360.084c1.459,0.283,2.903,0.64,4.326,1.07l-17.648,17.035l-2.669-2.67L441.613,360.084z"/>
		<path id="Path_1413" class="st10" d="M449.489,356.612c4.895,2.541,6.8,5.583,6.8,8.154s-1.907,5.612-6.8,8.153
			c-4.851,2.518-11.325,3.824-17.9,3.824s-13.043-1.306-17.895-3.824c-4.9-2.541-6.8-5.582-6.8-8.153s1.907-5.613,6.8-8.154
			c4.852-2.518,11.326-3.824,17.895-3.824S444.638,354.094,449.489,356.612z"/>
		<path id="Path_1414" class="st5" d="M399.53,413.9l-0.227,8.28v0.3l13.083-6.92l-7.865-4.953L399.53,413.9z"/>
		<path id="Path_1415" class="st10" d="M399.369,422.989v-9.108l4.375-2.526c0.541-0.312,1.208-0.312,1.749,0l5.593,3.222
			c0.543,0.312,0.877,0.891,0.877,1.517v1.4"/>
		<path id="Path_1416" class="st28" d="M411.983,420.011v-2.231c0-0.483-0.391-0.875-0.874-0.876c-0.151,0-0.3,0.039-0.432,0.114
			l-9.02,5.09c-0.841,0.476-1.909,0.179-2.385-0.663c-0.149-0.263-0.227-0.56-0.226-0.862v-19.792
			c-0.001-3.161,1.704-6.077,4.459-7.628l7.864-4.427c0.551-0.31,0.892-0.894,0.892-1.526v-2.853c0-0.631-0.34-1.213-0.889-1.524
			l-6.322-3.577c-0.542-0.306-1.206-0.302-1.744,0.012l-12.3,7.172c-2.689,1.568-4.344,4.447-4.344,7.56v27.611
			c0.001,4.428,3.59,8.017,8.018,8.016c1.383,0,2.742-0.358,3.946-1.039l12.468-7.056
			C411.643,421.222,411.983,420.641,411.983,420.011z"/>
		<path id="Path_1417" class="st29" d="M444.575,396.844l-11.956,24.848c-0.389,0.808,0.035,1.569,0.807,1.438
			c2.535-0.431,7.516-1.334,11.149-2.359c3.61-1.018,8.465-2.8,10.967-3.748c0.738-0.263,1.122-1.075,0.859-1.812
			c-0.01-0.027-0.02-0.054-0.032-0.081L444.575,396.844z"/>
		<path id="Path_1418" class="st30" d="M444.578,413.018l-11.912-18.077c-0.311-0.748,0.043-1.607,0.791-1.918
			c0.086-0.036,0.175-0.063,0.266-0.082c2.7-0.492,7.428-1.406,10.855-2.373c3.654-0.975,7.24-2.188,10.736-3.63
			c0.9-0.367,1.567,0.468,1.112,1.415L444.578,413.018z"/>
		<path id="Path_1419" class="st5" d="M453.566,394.309l-17.976,5.07l-2.935-4.456c-0.31-0.746,0.044-1.602,0.79-1.912
			c0.083-0.035,0.169-0.061,0.258-0.08c2.782-0.521,7.69-1.487,10.789-2.361c3.656-1.024,7.258-2.233,10.791-3.623
			c0.91-0.362,1.585,0.487,1.127,1.44L453.566,394.309z"/>
		<path id="Path_1420" class="st5" d="M432.6,421.737c-0.383,0.8,0.024,1.551,0.782,1.439c0.787-0.117,1.745-0.269,2.576-0.428
			c1.784-0.342,4.545-0.985,4.545-0.985l13.066-27.454l-9,2.538L432.6,421.737z"/>
		<path id="Path_1421" class="st26" d="M440.082,406.2l4.494,6.82l4.494-9.354l-4.494-6.82L440.082,406.2z"/>
		<path id="Path_1422" class="st29" d="M674.982,310.464c-0.876,1.266,0.232,4.11,2,5.13l47.3,27.313
			c1.767,1.02,2.875-0.545,2-2.823l-25.652-66.641L674.982,310.464z"/>
		<path id="Path_1423" class="st5" d="M691.426,323.935l-14.445-8.342c-1.767-1.02-2.875-3.864-2-5.129l25.648-37.021l9.206,23.918
			L691.426,323.935z"/>
		<path id="Path_1424" class="st5" d="M674.981,244.006c-0.877-2.278,0.231-3.843,2-2.822l47.3,27.312
			c1.767,1.021,2.875,3.865,2,5.13l-25.648,37.022L674.981,244.006z"/>
		<path id="Path_1425" class="st12" d="M709.83,297.36l-9.205,13.288l-9.206-23.918l9.205-13.288L709.83,297.36z"/>
		<path id="Path_1426" class="st30" d="M700.624,273.442l-9.205,13.288l-9.206-23.918L700.624,273.442z"/>
	</g>
	<g id="Group_8955">
		<g id="Group_113" transform="translate(1140.098 349.236)">
			<path id="Path_1428" class="st2" d="M2.634,1l245.228,141.594c1.022,0.667,1.665,1.781,1.732,3l0.006,168.764
				c0,1.105-0.775,1.553-1.732,1L2.641,173.764c-1.023-0.666-1.666-1.781-1.732-3L0.9,2C0.9,0.895,1.678,0.448,2.634,1z"/>
			<path id="Path_1429" class="st31" d="M0.9,2c0-1.105,0.778-1.552,1.734-1l245.228,141.594c1.022,0.667,1.665,1.781,1.732,3
				v19.354L0.9,21.354V2z"/>
			<g id="Group_112">
				<g>
					<defs>
						<polygon id="SVGID_1_" points="9.672,155.549 22.418,162.909 22.418,180.387 9.672,173.027 						"/>
					</defs>
					<clipPath id="SVGID_2_">
						<use xlink:href="#SVGID_1_"  style="overflow:visible;"/>
					</clipPath>
					<g id="Group_111" class="st32">
						<g id="Group_110">
							<path id="Path_1430" class="st29" d="M10.128,172.121c-0.2,0.293,0.054,0.951,0.463,1.188l10.953,6.324
								c0.409,0.236,0.665-0.126,0.462-0.654l-5.939-15.43L10.128,172.121z"/>
							<path id="Path_1431" class="st5" d="M13.936,175.24l-3.345-1.931c-0.409-0.237-0.666-0.9-0.463-1.188l5.939-8.572
								l2.131,5.538L13.936,175.24z"/>
							<path id="Path_1432" class="st5" d="M10.128,156.733c-0.2-0.528,0.053-0.89,0.462-0.654l10.953,6.321
								c0.409,0.237,0.666,0.9,0.463,1.188l-5.939,8.572L10.128,156.733z"/>
							<path id="Path_1433" class="st12" d="M18.2,169.087l-2.132,3.076l-2.131-5.538l2.131-3.076L18.2,169.087z"/>
							<path id="Path_1434" class="st30" d="M16.066,163.549l-2.132,3.076l-2.134-5.538L16.066,163.549z"/>
						</g>
					</g>
				</g>
			</g>
			<path id="Path_1436" class="st2" d="M102.076,65.128l45.409,26.219v7.074L102.076,72.2V65.128z"/>
			<path id="Path_1437" class="st33" d="M6.7,32.231l32.385,18.7c1.023,0.667,1.666,1.781,1.732,3v28.2c0,1.105-0.775,1.553-1.732,1
				L6.7,64.428c-1.023-0.667-1.666-1.781-1.732-3v-28.2C4.963,32.127,5.738,31.679,6.7,32.231z"/>
			<path id="Path_1438" class="st33" d="M6.7,115.023l32.385,18.7c1.022,0.667,1.665,1.781,1.732,3v28.2c0,1.1-0.775,1.552-1.732,1
				L6.7,147.22c-1.022-0.667-1.665-1.781-1.732-3v-28.2C4.965,114.918,5.74,114.471,6.7,115.023z"/>
			<path id="Path_1439" class="st33" d="M46.527,55.231l32.385,18.7c1.023,0.666,1.666,1.781,1.732,3v28.2
				c0,1.105-0.775,1.553-1.732,1l-32.385-18.7c-1.023-0.667-1.666-1.781-1.732-3V56.23C44.795,55.126,45.57,54.678,46.527,55.231z"
				/>
			<path id="Path_1440" class="st33" d="M46.529,138.022l32.385,18.7c1.023,0.667,1.666,1.781,1.732,3v28.2
				c0,1.1-0.775,1.552-1.732,1l-32.385-18.7c-1.022-0.667-1.665-1.781-1.732-3v-28.2C44.8,137.917,45.572,137.47,46.529,138.022z"/>
			<path id="Path_1441" class="st23" d="M86.359,78.23l33.182,19.159c1.023,0.667,1.666,1.781,1.732,3v28.2
				c0,1.1-0.776,1.552-1.732,1L86.36,110.426c-1.023-0.667-1.666-1.781-1.732-3V79.23C84.627,78.125,85.4,77.677,86.359,78.23z"/>
			<path id="Path_1442" class="st33" d="M86.363,161.021l33.182,19.159c1.022,0.667,1.666,1.781,1.732,3v28.2
				c0,1.1-0.776,1.552-1.732,1l-33.181-19.162c-1.022-0.667-1.665-1.781-1.732-3v-28.2
				C84.631,160.916,85.406,160.469,86.363,161.021z"/>
			<path id="Path_1443" class="st33" d="M126.191,101.229l33.182,19.159c1.022,0.667,1.666,1.781,1.732,3v28.2
				c0,1.1-0.776,1.552-1.732,1l-33.182-19.159c-1.022-0.667-1.665-1.781-1.732-3v-28.2
				C124.459,101.124,125.234,100.677,126.191,101.229z"/>
			<path id="Path_1444" class="st33" d="M126.195,184.021l33.182,19.159c1.022,0.667,1.666,1.781,1.732,3v28.2
				c0,1.1-0.776,1.552-1.732,1L126.2,216.218c-1.022-0.667-1.665-1.781-1.732-3v-28.2
				C124.463,183.916,125.238,183.469,126.195,184.021z"/>
			<path id="Path_1445" class="st33" d="M166.82,124.688l32.385,18.7c1.023,0.667,1.666,1.781,1.732,3v28.2
				c0,1.1-0.775,1.552-1.732,1l-32.385-18.7c-1.022-0.667-1.665-1.781-1.732-3v-28.2
				C165.088,124.583,165.863,124.136,166.82,124.688z"/>
			<path id="Path_1446" class="st33" d="M166.824,207.48l32.385,18.7c1.023,0.667,1.666,1.781,1.732,3v28.2
				c0,1.1-0.775,1.552-1.732,1l-32.385-18.7c-1.022-0.667-1.665-1.781-1.732-3v-28.2
				C165.092,207.375,165.867,206.928,166.824,207.48z"/>
			<path id="Path_1447" class="st34" d="M206.652,147.687l32.385,18.7c1.023,0.667,1.666,1.781,1.732,3v28.2
				c0,1.105-0.775,1.552-1.732,1l-32.385-18.7c-1.022-0.667-1.665-1.781-1.732-3v-28.2
				C204.92,147.582,205.7,147.135,206.652,147.687z"/>
			<path id="Path_1448" class="st34" d="M206.656,230.479l32.385,18.7c1.023,0.667,1.666,1.781,1.732,3v28.2
				c0,1.105-0.775,1.552-1.732,1l-32.385-18.7c-1.022-0.667-1.665-1.781-1.732-3v-28.2
				C204.924,230.374,205.7,229.927,206.656,230.479z"/>
			<path id="Path_1449" class="st33" d="M6.7,75.467l232.34,134.155c1.023,0.667,1.666,1.781,1.732,3v24.517
				c0,1.1-0.776,1.552-1.732,1L6.7,103.984c-1.023-0.666-1.666-1.781-1.732-3V76.467C4.965,75.362,5.74,74.915,6.7,75.467z"/>
			
				<ellipse id="Ellipse_65" transform="matrix(0.866 -0.5 0.5 0.866 -42.4344 20.0088)" class="st20" cx="16.119" cy="89.186" rx="2.602" ry="4.507"/>
			
				<ellipse id="Ellipse_66" transform="matrix(0.866 -0.5 0.5 0.866 -61.9096 92.682)" class="st35" cx="141.988" cy="161.863" rx="2.602" ry="4.507"/>
			
				<ellipse id="Ellipse_67" transform="matrix(0.866 -0.5 0.5 0.866 -48.414 21.6111)" class="st30" cx="16.119" cy="101.145" rx="2.602" ry="4.507"/>
			
				<ellipse id="Ellipse_68" transform="matrix(0.866 -0.5 0.5 0.866 -67.8893 94.2843)" class="st2" cx="141.988" cy="173.822" rx="2.602" ry="4.507"/>
			<path id="Path_1450" class="st23" d="M28.067,92.406l47.8,27.6c1.882,1.227,3.066,3.277,3.187,5.52l0,0
				c0,2.032-1.427,2.855-3.186,1.839l-47.8-27.6c-1.882-1.226-3.065-3.276-3.187-5.519l0,0
				C24.881,92.214,26.308,91.39,28.067,92.406z"/>
			<path id="Path_1451" class="st2" d="M28.067,104.365l80.462,46.458c1.881,1.227,3.065,3.277,3.187,5.52l0,0
				c0,2.032-1.427,2.856-3.187,1.84l-80.461-46.459c-1.882-1.226-3.065-3.276-3.187-5.519l0,0
				C24.881,104.172,26.308,103.349,28.067,104.365z"/>
			<path id="Path_1452" class="st2" d="M153.937,177.042l77.274,44.618c1.881,1.227,3.065,3.277,3.187,5.52l0,0
				c0,2.032-1.427,2.856-3.187,1.84l-77.274-44.62c-1.882-1.226-3.065-3.276-3.187-5.519l0,0
				C150.75,176.849,152.177,176.026,153.937,177.042z"/>
			<path id="Path_1453" class="st35" d="M153.937,165.084l47.8,27.6c1.882,1.227,3.066,3.277,3.187,5.52l0,0
				c0,2.032-1.426,2.855-3.186,1.839l-47.8-27.6c-1.882-1.226-3.065-3.276-3.187-5.519l0,0
				C150.75,164.891,152.177,164.068,153.937,165.084z"/>
			<path id="Path_1454" class="st29" d="M154.074,140.326l2.113,1.22c1.023,0.667,1.666,1.781,1.732,3v2.439
				c0,1.1-0.776,1.552-1.732,1l-2.113-1.22c-1.023-0.667-1.666-1.781-1.732-3v-2.439
				C152.342,140.221,153.117,139.774,154.074,140.326z"/>
			<path id="Path_1455" class="st29" d="M113.445,116.867l2.113,1.22c1.023,0.667,1.666,1.781,1.732,3v2.439
				c0,1.1-0.776,1.552-1.732,1l-2.113-1.22c-1.023-0.667-1.666-1.781-1.732-3v-2.439
				C111.713,116.762,112.488,116.315,113.445,116.867z"/>
			<path id="Path_1456" class="st29" d="M73.617,176.659l2.112,1.22c1.023,0.666,1.666,1.781,1.732,3v2.439
				c0,1.105-0.775,1.552-1.731,1l-2.113-1.22c-1.023-0.666-1.666-1.781-1.732-3v-2.439C71.885,176.554,72.66,176.107,73.617,176.659
				z"/>
		</g>
	</g>
</g>
</svg>
